# xmcd
#
# Track frame offsets: 
#        225
#        12766
#        24185
#        34867
#        44285
#        54699
#        62936
#        74030
#        85468
#        98515
#        111321
#        122142
#        132940
#        148054
#        160876
#        172498
#        184091
#        196311
#        208713
#        220500
#
# Disc length: 3089 seconds
#
# Revision: 0
# Processed by: cddbd v1.5.2PL0 Copyright (c) Steve Scherf et al.
# Submitted via: ExactAudioCopy v0.99pb3
#
DISCID=2e0c0e14
DTITLE=Various Artist - Chitown Boogaloo
DYEAR=2006
DGENRE=Funk
TTITLE0=Lewise Bethune - Chitown Boogaloo
TTITLE1=Sharpees - Do The 45
TTITLE2=Bull and The Matadors - Move With The Groove
TTITLE3=Syl Johnson - Try Me
TTITLE4=Lovemasters - Pushin' And Pullin'
TTITLE5=Baby Jean - If You Wanna
TTITLE6=Rolls Royce and The Wheels - The Frog
TTITLE7=Billy 'The Kid' Emerson - The Whip
TTITLE8=Morris King - Broadway Time Pt 1
TTITLE9=Gene Yarborough - The Meeting Place
TTITLE10=A.C. Reed - Boogaloo Tramp
TTITLE11=Dave Mitchell and The Screamers - The Trip
TTITLE12=Case Of Tyme - Manifesto
TTITLE13=Saxie Russell - Psychedelic Soul
TTITLE14=Otis Brown - The Willie Bop
TTITLE15=Alvin Cash - Funky 69
TTITLE16=Jerry-O - Popcorn Boogaloo
TTITLE17=C.O.D.'s - Michael
TTITLE18=Holly Maxwell - Philly Barracuda
TTITLE19=Fred Hughes - Walk On Back To You
EXTD=
EXTT0=
EXTT1=
EXTT2=
EXTT3=
EXTT4=
EXTT5=
EXTT6=
EXTT7=
EXTT8=
EXTT9=
EXTT10=
EXTT11=
EXTT12=
EXTT13=
EXTT14=
EXTT15=
EXTT16=
EXTT17=
EXTT18=
EXTT19=
PLAYORDER=
